<svg xmlns="http://www.w3.org/2000/svg" xmlns:xlink="http://www.w3.org/1999/xlink" width="96px" height="97px">
      <path fill-rule="evenodd" opacity="0.2" fill="rgb(255, 0, 0)"
            d="M47.1000,0.094 C74.510,0.094 95.1000,21.584 95.1000,48.094 C95.1000,74.603 74.510,96.093 47.1000,96.093 C21.490,96.093 -0.000,74.603 -0.000,48.094 C-0.000,21.584 21.490,0.094 47.1000,0.094 Z" />
      <path fill-rule="evenodd" fill="rgb(255, 0, 0)"
            d="M47.1000,14.718 C66.415,14.718 81.344,29.654 81.344,48.078 C81.344,66.502 66.415,81.437 47.1000,81.437 C29.585,81.437 14.656,66.502 14.656,48.078 C14.656,29.654 29.585,14.718 47.1000,14.718 Z" />
      <path fill-rule="evenodd" fill="rgb(243, 243, 243)"
            d="M62.217,49.166 L39.434,62.320 L39.434,36.011 L62.217,49.166 Z" />
</svg>